<svg id="Capa_1" enable-background="new 0 0 442.314 442.314" height="512" viewBox="0 0 442.314 442.314" width="512" xmlns="http://www.w3.org/2000/svg"><g fill="#eeefee"><path d="m412.169 173.135c-105.556-105.307-276.432-105.307-381.988 0l-30.181-30.181c122.22-121.953 320.094-121.953 442.314 0z"/><path d="m351.853 233.472c-72.214-72.04-189.111-72.04-261.324 0l-30.181-30.181c88.878-88.686 232.773-88.686 321.651 0z"/><path d="m291.516 293.804c-38.869-38.769-101.782-38.769-140.651 0l-30.181-30.181c55.531-55.434 145.462-55.434 200.993 0z"/><path d="m190.33 378.015c-16.964-17.047-16.896-44.617.15-61.581s44.617-16.896 61.581.15c16.905 16.988 16.905 44.443 0 61.431-17 17.047-44.601 17.084-61.647.084-.028-.028-.056-.056-.084-.084z"/></g></svg>